<?xml version="1.0" encoding="utf-8"?>
<!-- Generator: Adobe Illustrator 18.0.0, SVG Export Plug-In . SVG Version: 6.00 Build 0)  -->
<!DOCTYPE svg PUBLIC "-//W3C//DTD SVG 1.1//EN" "http://www.w3.org/Graphics/SVG/1.1/DTD/svg11.dtd">
<svg version="1.1" id="Layer_1" xmlns="http://www.w3.org/2000/svg" xmlns:xlink="http://www.w3.org/1999/xlink" x="0px" y="0px"
	 viewBox="366.6 515.9 108 108" enable-background="new 366.6 515.9 108 108" xml:space="preserve">
<path fill="#E2E2E2" d="M427.9,518.5H413c-2.6,0-4.7,2.1-4.7,4.7v14.9c0,2.6,2.1,4.7,4.7,4.7h14.9c2.6,0,4.7-2.1,4.7-4.7v-14.9
	C432.7,520.6,430.5,518.5,427.9,518.5z M420.5,536.3c-3.1,0-5.7-2.5-5.7-5.7c0-3.1,2.5-5.7,5.7-5.7c3.2,0,5.7,2.5,5.7,5.7
	C426.2,533.7,423.7,536.3,420.5,536.3z"/>
<g>
	<path fill="#E2E2E2" d="M458.8,547.6h-76.5c-4.8,0-8.7,3.9-8.7,8.7v33.4c0,4.8,3.9,8.7,8.7,8.7h24.2c0,0,0,0,0.1,0
		c1.9-0.1,3.6-2.1,4.5-5l0,0l0,0c1.4-5.7,5.1-9.8,9.5-9.8s8.1,4.1,9.5,9.8l0,0l0,0c0.9,2.9,2.5,4.8,4.5,5c0,0,0,0,0.1,0h24.2
		c4.8,0,8.7-3.9,8.7-8.7v-33.4C467.4,551.5,463.5,547.6,458.8,547.6z M392.6,584.7c-6.4,0-11.7-5.2-11.7-11.7
		c0-6.4,5.2-11.7,11.7-11.7c6.4,0,11.7,5.2,11.7,11.7C404.3,579.4,399.1,584.7,392.6,584.7z M448.4,584.7c-6.4,0-11.7-5.2-11.7-11.7
		c0-6.4,5.2-11.7,11.7-11.7s11.7,5.2,11.7,11.7C460.1,579.4,454.9,584.7,448.4,584.7z"/>
</g>
<circle fill="#E2E2E2" cx="392.6" cy="612.3" r="8.8"/>
<circle fill="#E2E2E2" cx="448.4" cy="612.3" r="9"/>
</svg>
