<?xml version="1.0" encoding="utf-8"?>
<!-- Generator: Adobe Illustrator 18.0.0, SVG Export Plug-In . SVG Version: 6.00 Build 0)  -->
<!DOCTYPE svg PUBLIC "-//W3C//DTD SVG 1.1//EN" "http://www.w3.org/Graphics/SVG/1.1/DTD/svg11.dtd">
<svg version="1.1" id="Layer_1" xmlns="http://www.w3.org/2000/svg" xmlns:xlink="http://www.w3.org/1999/xlink" x="0px" y="0px"
	 viewBox="400.2 457.3 41.4 41.4" enable-background="new 400.2 457.3 41.4 41.4" xml:space="preserve">
<g>
	<g>
		<path fill="#E2E2E2" d="M423.1,481.4h-4.6v-5.5h1.4c1,0,1.8-0.2,2.3-0.6c0.5-0.4,0.8-1,0.8-1.8c0-0.6-0.2-1.1-0.6-1.5
			s-0.9-0.6-1.5-0.6s-1.1,0.2-1.5,0.5c-0.4,0.3-0.5,0.8-0.6,1.5h-4.5v-0.1c0-1.7,0.6-3.1,1.8-4.1s2.9-1.5,5-1.5
			c1.9,0,3.4,0.5,4.5,1.6c1.1,1.1,1.7,2.5,1.7,4.3c0,1.5-0.4,2.7-1.2,3.6c-0.8,0.9-1.8,1.4-3.1,1.4L423.1,481.4z M418,485.8
			c0-0.8,0.3-1.4,0.8-1.9c0.5-0.5,1.2-0.8,1.9-0.8c0.8,0,1.4,0.3,1.9,0.8c0.5,0.5,0.8,1.2,0.8,1.9c0,0.8-0.3,1.4-0.8,1.9
			c-0.5,0.5-1.1,0.8-1.9,0.8c-0.7,0-1.4-0.3-1.9-0.8C418.2,487.2,418,486.6,418,485.8z"/>
	</g>
</g>
</svg>
